# Wavefront OBJ file automatically generated by Tiled2Unity

# Vertices (Count = 256)
v -4.48 -0.64 0
v -4.8 -0.64 0
v -4.8 -0.32 0
v -4.48 -0.32 0
v 0 -0.64 0
v -0.32 -0.64 0
v -0.32 -0.32 0
v 0 -0.32 0
v -4.48 -0.96 0
v -4.8 -0.96 0
v 0 -0.96 0
v -0.32 -0.96 0
v -4.48 -1.28 0
v -4.8 -1.28 0
v 0 -1.28 0
v -0.32 -1.28 0
v -4.48 -1.6 0
v -4.8 -1.6 0
v 0 -1.6 0
v -0.32 -1.6 0
v -4.48 -1.92 0
v -4.8 -1.92 0
v 0 -1.92 0
v -0.32 -1.92 0
v -4.48 -2.24 0
v -4.8 -2.24 0
v 0 -2.24 0
v -0.32 -2.24 0
v -4.48 -2.56 0
v -4.8 -2.56 0
v 0 -2.56 0
v -0.32 -2.56 0
v -4.48 -2.88 0
v -4.8 -2.88 0
v 0 -2.88 0
v -0.32 -2.88 0
v -4.48 -3.2 0
v -4.8 -3.2 0
v 0 -3.2 0
v -0.32 -3.2 0
v -4.48 -3.52 0
v -4.8 -3.52 0
v 0 -3.52 0
v -0.32 -3.52 0
v -4.48 -3.84 0
v -4.8 -3.84 0
v 0 -3.84 0
v -0.32 -3.84 0
v -4.48 -4.16 0
v -4.8 -4.16 0
v 0 -4.16 0
v -0.32 -4.16 0
v -4.48 -4.48 0
v -4.8 -4.48 0
v 0 -4.48 0
v -0.32 -4.48 0
v -4.48 -4.8 0
v -4.8 -4.8 0
v -4.16 -4.8 0
v -4.16 -4.48 0
v -3.84 -4.8 0
v -3.84 -4.48 0
v -3.52 -4.8 0
v -3.52 -4.48 0
v -3.2 -4.8 0
v -3.2 -4.48 0
v -2.88 -4.8 0
v -2.88 -4.48 0
v -1.6 -4.8 0
v -1.92 -4.8 0
v -1.92 -4.48 0
v -1.6 -4.48 0
v -1.28 -4.8 0
v -1.28 -4.48 0
v -0.96 -4.8 0
v -0.96 -4.48 0
v -0.64 -4.8 0
v -0.64 -4.48 0
v -0.32 -4.8 0
v 0 -4.8 0
v -4.16 -0.64 0
v -4.16 -0.32 0
v -3.84 -0.64 0
v -3.84 -0.32 0
v -3.52 -0.64 0
v -3.52 -0.32 0
v -3.2 -0.64 0
v -3.2 -0.32 0
v -2.88 -0.64 0
v -2.88 -0.32 0
v -2.56 -0.64 0
v -2.56 -0.32 0
v -2.24 -0.64 0
v -2.24 -0.32 0
v -1.92 -0.64 0
v -1.92 -0.32 0
v -1.6 -0.64 0
v -1.6 -0.32 0
v -1.28 -0.64 0
v -1.28 -0.32 0
v -0.96 -0.64 0
v -0.96 -0.32 0
v -0.64 -0.64 0
v -0.64 -0.32 0
v -4.16 -0.96 0
v -3.84 -0.96 0
v -3.52 -0.96 0
v -3.2 -0.96 0
v -2.88 -0.96 0
v -2.56 -0.96 0
v -2.24 -0.96 0
v -1.92 -0.96 0
v -1.6 -0.96 0
v -1.28 -0.96 0
v -0.96 -0.96 0
v -0.64 -0.96 0
v -4.16 -1.28 0
v -3.84 -1.28 0
v -3.52 -1.28 0
v -3.2 -1.28 0
v -2.88 -1.28 0
v -2.56 -1.28 0
v -2.24 -1.28 0
v -1.92 -1.28 0
v -1.6 -1.28 0
v -1.28 -1.28 0
v -0.96 -1.28 0
v -0.64 -1.28 0
v -4.16 -1.6 0
v -3.84 -1.6 0
v -3.52 -1.6 0
v -3.2 -1.6 0
v -2.88 -1.6 0
v -2.56 -1.6 0
v -2.24 -1.6 0
v -1.92 -1.6 0
v -1.6 -1.6 0
v -1.28 -1.6 0
v -0.96 -1.6 0
v -0.64 -1.6 0
v -4.16 -1.92 0
v -3.84 -1.92 0
v -3.52 -1.92 0
v -3.2 -1.92 0
v -2.88 -1.92 0
v -2.56 -1.92 0
v -2.24 -1.92 0
v -1.92 -1.92 0
v -1.6 -1.92 0
v -1.28 -1.92 0
v -0.96 -1.92 0
v -0.64 -1.92 0
v -4.16 -2.24 0
v -3.84 -2.24 0
v -3.52 -2.24 0
v -3.2 -2.24 0
v -2.88 -2.24 0
v -2.56 -2.24 0
v -2.24 -2.24 0
v -1.92 -2.24 0
v -1.6 -2.24 0
v -1.28 -2.24 0
v -0.96 -2.24 0
v -0.64 -2.24 0
v -4.16 -2.56 0
v -3.84 -2.56 0
v -3.52 -2.56 0
v -3.2 -2.56 0
v -2.88 -2.56 0
v -2.56 -2.56 0
v -2.24 -2.56 0
v -1.92 -2.56 0
v -1.6 -2.56 0
v -1.28 -2.56 0
v -0.96 -2.56 0
v -0.64 -2.56 0
v -4.16 -2.88 0
v -3.84 -2.88 0
v -3.52 -2.88 0
v -3.2 -2.88 0
v -2.88 -2.88 0
v -2.56 -2.88 0
v -2.24 -2.88 0
v -1.92 -2.88 0
v -1.6 -2.88 0
v -1.28 -2.88 0
v -0.96 -2.88 0
v -0.64 -2.88 0
v -4.16 -3.2 0
v -3.84 -3.2 0
v -3.52 -3.2 0
v -3.2 -3.2 0
v -2.88 -3.2 0
v -2.56 -3.2 0
v -2.24 -3.2 0
v -1.92 -3.2 0
v -1.6 -3.2 0
v -1.28 -3.2 0
v -0.96 -3.2 0
v -0.64 -3.2 0
v -4.16 -3.52 0
v -3.84 -3.52 0
v -3.52 -3.52 0
v -3.2 -3.52 0
v -2.88 -3.52 0
v -2.56 -3.52 0
v -2.24 -3.52 0
v -1.92 -3.52 0
v -1.6 -3.52 0
v -1.28 -3.52 0
v -0.96 -3.52 0
v -0.64 -3.52 0
v -4.16 -3.84 0
v -3.84 -3.84 0
v -3.52 -3.84 0
v -3.2 -3.84 0
v -2.88 -3.84 0
v -2.56 -3.84 0
v -2.24 -3.84 0
v -1.92 -3.84 0
v -1.6 -3.84 0
v -1.28 -3.84 0
v -0.96 -3.84 0
v -0.64 -3.84 0
v -4.16 -4.16 0
v -3.84 -4.16 0
v -3.52 -4.16 0
v -3.2 -4.16 0
v -2.88 -4.16 0
v -2.56 -4.16 0
v -2.24 -4.16 0
v -1.92 -4.16 0
v -1.6 -4.16 0
v -1.28 -4.16 0
v -0.96 -4.16 0
v -0.64 -4.16 0
v -2.56 -4.48 0
v -2.24 -4.48 0
v -2.56 -4.8 0
v -2.24 -4.8 0
v -4.8 0 0
v -4.48 0 0
v -4.16 0 0
v -3.84 0 0
v -3.52 0 0
v -3.2 0 0
v -2.88 0 0
v -2.56 0 0
v -2.24 0 0
v -1.92 0 0
v -1.6 0 0
v -1.28 0 0
v -0.96 0 0
v -0.64 0 0
v -0.32 0 0
v 0 0 0

# Texture cooridinates (Count = 246)
vt 0.8334554 0.3847374
vt 0.9998779 0.3847374
vt 0.9998779 0.4614164
vt 0.8334554 0.4614164
vt 0.8334554 0.3078144
vt 0.9998779 0.3078144
vt 0.9998779 0.3844933
vt 0.8334554 0.3844933
vt 0.3334554 0.07704514
vt 0.4998779 0.07704514
vt 0.4998779 0.1537241
vt 0.3334554 0.1537241
vt 0.8334554 0.07704514
vt 0.9998779 0.07704514
vt 0.9998779 0.1537241
vt 0.8334554 0.1537241
vt 0.0001220703 0.07704514
vt 0.1665446 0.07704514
vt 0.1665446 0.1537241
vt 0.0001220703 0.1537241
vt 0.2501221 0.2001221
vt 0.4998779 0.2001221
vt 0.4998779 0.3998779
vt 0.2501221 0.3998779
vt 0.5001221 0.0001220703
vt 0.7498779 0.0001220703
vt 0.7498779 0.1998779
vt 0.5001221 0.1998779
vt 0.2501221 0.0001220703
vt 0.4998779 0.0001220703
vt 0.4998779 0.1998779
vt 0.2501221 0.1998779
vt 0.5001221 0.6001221
vt 0.7498779 0.6001221
vt 0.7498779 0.7998779
vt 0.5001221 0.7998779
vt 0.2501221 0.8001221
vt 0.4998779 0.8001221
vt 0.4998779 0.9998779
vt 0.2501221 0.9998779
vt 0.2501221 0.6001221
vt 0.4998779 0.6001221
vt 0.4998779 0.7998779
vt 0.2501221 0.7998779
vt 0.1251221 0.1394324
vt 0.2498779 0.1394324
vt 0.2498779 0.1612573
vt 0.1251221 0.1612573
vt 0.5001221 0.8897772
vt 0.6248779 0.8897772
vt 0.6248779 0.9116021
vt 0.5001221 0.9116021
vt 0.0001220703 0.1394324
vt 0.1248779 0.1394324
vt 0.1248779 0.1612573
vt 0.0001220703 0.1612573
vt 0.1251221 0.1173635
vt 0.2498779 0.1173635
vt 0.2498779 0.1391883
vt 0.1251221 0.1391883
vt 0.0001220703 0.1173635
vt 0.1248779 0.1173635
vt 0.1248779 0.1391883
vt 0.0001220703 0.1391883
vt 0.7501221 0.8897772
vt 0.8748779 0.8897772
vt 0.8748779 0.9116021
vt 0.7501221 0.9116021
vt 0.1251221 0.8897772
vt 0.2498779 0.8897772
vt 0.2498779 0.9116021
vt 0.1251221 0.9116021
vt 0.5001221 0.8677083
vt 0.6248779 0.8677083
vt 0.6248779 0.8895331
vt 0.5001221 0.8895331
vt 0.3751221 0.8677083
vt 0.4998779 0.8677083
vt 0.4998779 0.8895331
vt 0.3751221 0.8895331
vt 0.3334554 0.1667888
vt 0.6665446 0.1667888
vt 0.6665446 0.3332112
vt 0.3334554 0.3332112
vt 0.6667888 0.8334554
vt 0.9998779 0.8334554
vt 0.9998779 0.9998779
vt 0.6667888 0.9998779
vt 0.0001220703 0.5001221
vt 0.3332113 0.5001221
vt 0.3332113 0.6665446
vt 0.0001220703 0.6665446
vt 0.0001220703 0.8334554
vt 0.3332113 0.8334554
vt 0.3332113 0.9998779
vt 0.0001220703 0.9998779
vt 0.5001221 0.923199
vt 0.6665446 0.923199
vt 0.6665446 0.9998779
vt 0.5001221 0.9998779
vt 0.6667888 0.2308913
vt 0.8332112 0.2308913
vt 0.8332112 0.3075702
vt 0.6667888 0.3075702
vt 0.5001221 0.2308913
vt 0.6665446 0.2308913
vt 0.6665446 0.3075702
vt 0.5001221 0.3075702
vt 0.3334554 0.923199
vt 0.4998779 0.923199
vt 0.3334554 0.9998779
vt 0.0001220703 0.6924298
vt 0.1665446 0.6924298
vt 0.1665446 0.7691087
vt 0.0001220703 0.7691087
vt 0.1667887 0.6924298
vt 0.3332113 0.6924298
vt 0.3332113 0.7691087
vt 0.1667887 0.7691087
vt 0.1667887 0.923199
vt 0.3332113 0.923199
vt 0.1667887 0.9998779
vt 0.5001221 0.8462759
vt 0.6665446 0.8462759
vt 0.6665446 0.9229549
vt 0.5001221 0.9229549
vt 0.3334554 0.8462759
vt 0.4998779 0.8462759
vt 0.4998779 0.9229549
vt 0.3334554 0.9229549
vt 0.0001220703 0.6155066
vt 0.1665446 0.6155066
vt 0.1665446 0.6921856
vt 0.0001220703 0.6921856
vt 0.1667887 0.6155066
vt 0.3332113 0.6155066
vt 0.3332113 0.6921856
vt 0.1667887 0.6921856
vt 0.1667887 0.8462759
vt 0.3332113 0.8462759
vt 0.3332113 0.9229549
vt 0.1667887 0.9229549
vt 0.5001221 0.7693529
vt 0.6665446 0.7693529
vt 0.6665446 0.8460318
vt 0.5001221 0.8460318
vt 0.3334554 0.7693529
vt 0.4998779 0.7693529
vt 0.4998779 0.8460318
vt 0.3334554 0.8460318
vt 0.0001220703 0.5385836
vt 0.1665446 0.5385836
vt 0.1665446 0.6152625
vt 0.0001220703 0.6152625
vt 0.1667887 0.5385836
vt 0.3332113 0.5385836
vt 0.3332113 0.6152625
vt 0.1667887 0.6152625
vt 0.1667887 0.7693529
vt 0.3332113 0.7693529
vt 0.3332113 0.8460318
vt 0.1667887 0.8460318
vt 0.6667888 0.923199
vt 0.8332112 0.923199
vt 0.8332112 0.9998779
vt 0.0001220703 0.7501221
vt 0.4998779 0.7501221
vt 0.5001221 0.2501221
vt 0.9998779 0.2501221
vt 0.9998779 0.4998779
vt 0.5001221 0.4998779
vt 0.5001221 0.7501221
vt 0.9998779 0.7501221
vt 0.4998779 0.5001221
vt 0.4998779 0.7498779
vt 0.0001220703 0.7498779
vt 0.5001221 0.5001221
vt 0.9998779 0.5001221
vt 0.9998779 0.7498779
vt 0.5001221 0.7498779
vt 0.9998779 0.0001220703
vt 0.9998779 0.2498779
vt 0.5001221 0.2498779
vt 0.0001220703 0.2501221
vt 0.4998779 0.2501221
vt 0.4998779 0.4998779
vt 0.0001220703 0.4998779
vt 0.0001220703 0.0001220703
vt 0.4998779 0.2498779
vt 0.0001220703 0.2498779
vt 0.7501221 0.5001221
vt 0.7501221 0.9998779
vt 0.7498779 0.5001221
vt 0.7498779 0.9998779
vt 0.7501221 0.0001220703
vt 0.7501221 0.4998779
vt 0.7498779 0.4998779
vt 0.3334554 0.5001221
vt 0.6665446 0.5001221
vt 0.3334554 0.0001220703
vt 0.6665446 0.0001220703
vt 0.6665446 0.4998779
vt 0.3334554 0.4998779
vt 0.4001221 0.2501221
vt 0.599878 0.2501221
vt 0.599878 0.4998779
vt 0.4001221 0.4998779
vt 0.2001221 0.7501221
vt 0.3998779 0.7501221
vt 0.3998779 0.9998779
vt 0.2001221 0.9998779
vt 0.1998779 0.7501221
vt 0.1998779 0.9998779
vt 0.8001221 0.2501221
vt 0.8001221 0.4998779
vt 0.2001221 0.5001221
vt 0.3998779 0.5001221
vt 0.3998779 0.7498779
vt 0.2001221 0.7498779
vt 0.1998779 0.5001221
vt 0.1998779 0.7498779
vt 0.8001221 0.0001220703
vt 0.8001221 0.2498779
vt 0.2001221 0.2501221
vt 0.3998779 0.2501221
vt 0.3998779 0.4998779
vt 0.2001221 0.4998779
vt 0.1998779 0.2501221
vt 0.1998779 0.4998779
vt 0.0001220703 0.3334554
vt 0.4998779 0.3334554
vt 0.4998779 0.6665446
vt 0.0001220703 0.6667887
vt 0.4998779 0.6667887
vt 0.1251221 0.5587428
vt 0.2498779 0.5587428
vt 0.2498779 0.5805676
vt 0.1251221 0.5805676
vt 0.1251221 0.5366738
vt 0.2498779 0.5366738
vt 0.2498779 0.5584986
vt 0.1251221 0.5584986
vt 0.7501221 0.09529448
vt 0.8748779 0.09529448
vt 0.8748779 0.1171193
vt 0.7501221 0.1171193

# Normal
vn 0 0 -1

# Groups (Count = 4)

g mesh_0001
f 1/1/1 2/2/1 3/3/1 4/4/1
f 5/5/1 6/6/1 7/7/1 8/8/1
f 9/1/1 10/2/1 2/3/1 1/4/1
f 11/5/1 12/6/1 6/7/1 5/8/1
f 13/1/1 14/2/1 10/3/1 9/4/1
f 15/5/1 16/6/1 12/7/1 11/8/1
f 17/1/1 18/2/1 14/3/1 13/4/1
f 19/5/1 20/6/1 16/7/1 15/8/1
f 21/1/1 22/2/1 18/3/1 17/4/1
f 23/5/1 24/6/1 20/7/1 19/8/1
f 25/1/1 26/2/1 22/3/1 21/4/1
f 27/5/1 28/6/1 24/7/1 23/8/1
f 29/1/1 30/2/1 26/3/1 25/4/1
f 31/5/1 32/6/1 28/7/1 27/8/1
f 33/1/1 34/2/1 30/3/1 29/4/1
f 35/5/1 36/6/1 32/7/1 31/8/1
f 37/1/1 38/2/1 34/3/1 33/4/1
f 39/5/1 40/6/1 36/7/1 35/8/1
f 41/1/1 42/2/1 38/3/1 37/4/1
f 43/5/1 44/6/1 40/7/1 39/8/1
f 45/1/1 46/2/1 42/3/1 41/4/1
f 47/5/1 48/6/1 44/7/1 43/8/1
f 49/1/1 50/2/1 46/3/1 45/4/1
f 51/5/1 52/6/1 48/7/1 47/8/1
f 53/1/1 54/2/1 50/3/1 49/4/1
f 55/5/1 56/6/1 52/7/1 51/8/1
f 57/9/1 58/10/1 54/11/1 53/12/1
f 59/13/1 57/14/1 53/15/1 60/16/1
f 61/13/1 59/14/1 60/15/1 62/16/1
f 63/13/1 61/14/1 62/15/1 64/16/1
f 65/13/1 63/14/1 64/15/1 66/16/1
f 67/13/1 65/14/1 66/15/1 68/16/1
f 69/13/1 70/14/1 71/15/1 72/16/1
f 73/13/1 69/14/1 72/15/1 74/16/1
f 75/13/1 73/14/1 74/15/1 76/16/1
f 77/13/1 75/14/1 76/15/1 78/16/1
f 79/13/1 77/14/1 78/15/1 56/16/1
f 80/17/1 79/18/1 56/19/1 55/20/1

g mesh_0002
f 81/21/1 1/22/1 4/23/1 82/24/1
f 83/21/1 81/22/1 82/23/1 84/24/1
f 85/21/1 83/22/1 84/23/1 86/24/1
f 87/25/1 85/26/1 86/27/1 88/28/1
f 89/29/1 87/30/1 88/31/1 90/32/1
f 91/29/1 89/30/1 90/31/1 92/32/1
f 93/25/1 91/26/1 92/27/1 94/28/1
f 95/21/1 93/22/1 94/23/1 96/24/1
f 97/33/1 95/34/1 96/35/1 98/36/1
f 99/33/1 97/34/1 98/35/1 100/36/1
f 101/33/1 99/34/1 100/35/1 102/36/1
f 103/33/1 101/34/1 102/35/1 104/36/1
f 6/33/1 103/34/1 104/35/1 7/36/1
f 105/21/1 9/22/1 1/23/1 81/24/1
f 106/21/1 105/22/1 81/23/1 83/24/1
f 107/25/1 106/26/1 83/27/1 85/28/1
f 108/29/1 107/30/1 85/31/1 87/32/1
f 109/29/1 108/30/1 87/31/1 89/32/1
f 110/25/1 109/26/1 89/27/1 91/28/1
f 111/25/1 110/26/1 91/27/1 93/28/1
f 112/21/1 111/22/1 93/23/1 95/24/1
f 113/37/1 112/38/1 95/39/1 97/40/1
f 114/37/1 113/38/1 97/39/1 99/40/1
f 115/33/1 114/34/1 99/35/1 101/36/1
f 116/37/1 115/38/1 101/39/1 103/40/1
f 12/37/1 116/38/1 103/39/1 6/40/1
f 117/25/1 13/26/1 9/27/1 105/28/1
f 118/25/1 117/26/1 105/27/1 106/28/1
f 119/25/1 118/26/1 106/27/1 107/28/1
f 120/25/1 119/26/1 107/27/1 108/28/1
f 121/25/1 120/26/1 108/27/1 109/28/1
f 122/21/1 121/22/1 109/23/1 110/24/1
f 123/21/1 122/22/1 110/23/1 111/24/1
f 124/29/1 123/30/1 111/31/1 112/32/1
f 125/33/1 124/34/1 112/35/1 113/36/1
f 126/33/1 125/34/1 113/35/1 114/36/1
f 127/33/1 126/34/1 114/35/1 115/36/1
f 128/37/1 127/38/1 115/39/1 116/40/1
f 16/33/1 128/34/1 116/35/1 12/36/1
f 129/21/1 17/22/1 13/23/1 117/24/1
f 130/21/1 129/22/1 117/23/1 118/24/1
f 131/21/1 130/22/1 118/23/1 119/24/1
f 132/21/1 131/22/1 119/23/1 120/24/1
f 133/29/1 132/30/1 120/31/1 121/32/1
f 134/29/1 133/30/1 121/31/1 122/32/1
f 135/25/1 134/26/1 122/27/1 123/28/1
f 136/21/1 135/22/1 123/23/1 124/24/1
f 137/37/1 136/38/1 124/39/1 125/40/1
f 138/33/1 137/34/1 125/35/1 126/36/1
f 139/41/1 138/42/1 126/43/1 127/44/1
f 140/33/1 139/34/1 127/35/1 128/36/1
f 20/37/1 140/38/1 128/39/1 16/40/1
f 141/29/1 21/30/1 17/31/1 129/32/1
f 142/29/1 141/30/1 129/31/1 130/32/1
f 143/21/1 142/22/1 130/23/1 131/24/1
f 144/25/1 143/26/1 131/27/1 132/28/1
f 145/29/1 144/30/1 132/31/1 133/32/1
f 146/21/1 145/22/1 133/23/1 134/24/1
f 147/21/1 146/22/1 134/23/1 135/24/1
f 148/29/1 147/30/1 135/31/1 136/32/1
f 149/41/1 148/42/1 136/43/1 137/44/1
f 150/37/1 149/38/1 137/39/1 138/40/1
f 151/37/1 150/38/1 138/39/1 139/40/1
f 152/41/1 151/42/1 139/43/1 140/44/1
f 24/37/1 152/38/1 140/39/1 20/40/1
f 153/21/1 25/22/1 21/23/1 141/24/1
f 154/29/1 153/30/1 141/31/1 142/32/1
f 155/25/1 154/26/1 142/27/1 143/28/1
f 156/21/1 155/22/1 143/23/1 144/24/1
f 157/25/1 156/26/1 144/27/1 145/28/1
f 158/25/1 157/26/1 145/27/1 146/28/1
f 159/21/1 158/22/1 146/23/1 147/24/1
f 160/25/1 159/26/1 147/27/1 148/28/1
f 161/41/1 160/42/1 148/43/1 149/44/1
f 162/41/1 161/42/1 149/43/1 150/44/1
f 163/41/1 162/42/1 150/43/1 151/44/1
f 164/37/1 163/38/1 151/39/1 152/40/1
f 28/33/1 164/34/1 152/35/1 24/36/1
f 165/25/1 29/26/1 25/27/1 153/28/1
f 166/21/1 165/22/1 153/23/1 154/24/1
f 167/21/1 166/22/1 154/23/1 155/24/1
f 168/29/1 167/30/1 155/31/1 156/32/1
f 169/21/1 168/22/1 156/23/1 157/24/1
f 170/21/1 169/22/1 157/23/1 158/24/1
f 171/21/1 170/22/1 158/23/1 159/24/1
f 172/25/1 171/26/1 159/27/1 160/28/1
f 173/37/1 172/38/1 160/39/1 161/40/1
f 174/41/1 173/42/1 161/43/1 162/44/1
f 175/37/1 174/38/1 162/39/1 163/40/1
f 176/41/1 175/42/1 163/43/1 164/44/1
f 32/37/1 176/38/1 164/39/1 28/40/1
f 177/29/1 33/30/1 29/31/1 165/32/1
f 178/29/1 177/30/1 165/31/1 166/32/1
f 179/29/1 178/30/1 166/31/1 167/32/1
f 180/25/1 179/26/1 167/27/1 168/28/1
f 181/21/1 180/22/1 168/23/1 169/24/1
f 182/25/1 181/26/1 169/27/1 170/28/1
f 183/21/1 182/22/1 170/23/1 171/24/1
f 184/21/1 183/22/1 171/23/1 172/24/1
f 185/29/1 184/30/1 172/31/1 173/32/1
f 186/21/1 185/22/1 173/23/1 174/24/1
f 187/29/1 186/30/1 174/31/1 175/32/1
f 188/25/1 187/26/1 175/27/1 176/28/1
f 36/25/1 188/26/1 176/27/1 32/28/1
f 189/25/1 37/26/1 33/27/1 177/28/1
f 190/21/1 189/22/1 177/23/1 178/24/1
f 191/29/1 190/30/1 178/31/1 179/32/1
f 192/29/1 191/30/1 179/31/1 180/32/1
f 193/21/1 192/22/1 180/23/1 181/24/1
f 194/29/1 193/30/1 181/31/1 182/32/1
f 195/25/1 194/26/1 182/27/1 183/28/1
f 196/25/1 195/26/1 183/27/1 184/28/1
f 197/25/1 196/26/1 184/27/1 185/28/1
f 198/25/1 197/26/1 185/27/1 186/28/1
f 199/25/1 198/26/1 186/27/1 187/28/1
f 200/25/1 199/26/1 187/27/1 188/28/1
f 40/25/1 200/26/1 188/27/1 36/28/1
f 201/21/1 41/22/1 37/23/1 189/24/1
f 202/25/1 201/26/1 189/27/1 190/28/1
f 203/25/1 202/26/1 190/27/1 191/28/1
f 204/25/1 203/26/1 191/27/1 192/28/1
f 205/29/1 204/30/1 192/31/1 193/32/1
f 206/21/1 205/22/1 193/23/1 194/24/1
f 207/25/1 206/26/1 194/27/1 195/28/1
f 208/21/1 207/22/1 195/23/1 196/24/1
f 209/29/1 208/30/1 196/31/1 197/32/1
f 210/25/1 209/26/1 197/27/1 198/28/1
f 211/25/1 210/26/1 198/27/1 199/28/1
f 212/25/1 211/26/1 199/27/1 200/28/1
f 44/25/1 212/26/1 200/27/1 40/28/1
f 213/21/1 45/22/1 41/23/1 201/24/1
f 214/25/1 213/26/1 201/27/1 202/28/1
f 215/25/1 214/26/1 202/27/1 203/28/1
f 216/25/1 215/26/1 203/27/1 204/28/1
f 217/25/1 216/26/1 204/27/1 205/28/1
f 218/29/1 217/30/1 205/31/1 206/32/1
f 219/25/1 218/26/1 206/27/1 207/28/1
f 220/21/1 219/22/1 207/23/1 208/24/1
f 221/25/1 220/26/1 208/27/1 209/28/1
f 222/21/1 221/22/1 209/23/1 210/24/1
f 223/21/1 222/22/1 210/23/1 211/24/1
f 224/29/1 223/30/1 211/31/1 212/32/1
f 48/21/1 224/22/1 212/23/1 44/24/1
f 225/25/1 49/26/1 45/27/1 213/28/1
f 226/21/1 225/22/1 213/23/1 214/24/1
f 227/25/1 226/26/1 214/27/1 215/28/1
f 228/29/1 227/30/1 215/31/1 216/32/1
f 229/25/1 228/26/1 216/27/1 217/28/1
f 230/21/1 229/22/1 217/23/1 218/24/1
f 231/29/1 230/30/1 218/31/1 219/32/1
f 232/21/1 231/22/1 219/23/1 220/24/1
f 233/25/1 232/26/1 220/27/1 221/28/1
f 234/29/1 233/30/1 221/31/1 222/32/1
f 235/25/1 234/26/1 222/27/1 223/28/1
f 236/29/1 235/30/1 223/31/1 224/32/1
f 52/21/1 236/22/1 224/23/1 48/24/1
f 60/29/1 53/30/1 49/31/1 225/32/1
f 62/21/1 60/22/1 225/23/1 226/24/1
f 64/21/1 62/22/1 226/23/1 227/24/1
f 66/29/1 64/30/1 227/31/1 228/32/1
f 68/25/1 66/26/1 228/27/1 229/28/1
f 237/29/1 68/30/1 229/31/1 230/32/1
f 238/25/1 237/26/1 230/27/1 231/28/1
f 71/25/1 238/26/1 231/27/1 232/28/1
f 72/29/1 71/30/1 232/31/1 233/32/1
f 74/25/1 72/26/1 233/27/1 234/28/1
f 76/21/1 74/22/1 234/23/1 235/24/1
f 78/29/1 76/30/1 235/31/1 236/32/1
f 56/29/1 78/30/1 236/31/1 52/32/1
f 239/21/1 67/22/1 68/23/1 237/24/1
f 240/21/1 239/22/1 237/23/1 238/24/1
f 70/25/1 240/26/1 238/27/1 71/28/1

g mesh_0003
f 4/45/1 3/46/1 241/47/1 242/48/1
f 82/49/1 4/50/1 242/51/1 243/52/1
f 84/49/1 82/50/1 243/51/1 244/52/1
f 86/49/1 84/50/1 244/51/1 245/52/1
f 88/49/1 86/50/1 245/51/1 246/52/1
f 92/49/1 90/50/1 247/51/1 248/52/1
f 94/49/1 92/50/1 248/51/1 249/52/1
f 96/49/1 94/50/1 249/51/1 250/52/1
f 100/49/1 98/50/1 251/51/1 252/52/1
f 102/49/1 100/50/1 252/51/1 253/52/1
f 104/49/1 102/50/1 253/51/1 254/52/1
f 7/49/1 104/50/1 254/51/1 255/52/1
f 8/53/1 7/54/1 255/55/1 256/56/1
f 1/57/1 2/58/1 3/59/1 4/60/1
f 5/61/1 6/62/1 7/63/1 8/64/1
f 9/57/1 10/58/1 2/59/1 1/60/1
f 11/61/1 12/62/1 6/63/1 5/64/1
f 13/57/1 14/58/1 10/59/1 9/60/1
f 15/61/1 16/62/1 12/63/1 11/64/1
f 17/57/1 18/58/1 14/59/1 13/60/1
f 19/61/1 20/62/1 16/63/1 15/64/1
f 21/57/1 22/58/1 18/59/1 17/60/1
f 23/61/1 24/62/1 20/63/1 19/64/1
f 25/57/1 26/58/1 22/59/1 21/60/1
f 27/61/1 28/62/1 24/63/1 23/64/1
f 29/57/1 30/58/1 26/59/1 25/60/1
f 31/61/1 32/62/1 28/63/1 27/64/1
f 33/57/1 34/58/1 30/59/1 29/60/1
f 35/61/1 36/62/1 32/63/1 31/64/1
f 37/57/1 38/58/1 34/59/1 33/60/1
f 39/61/1 40/62/1 36/63/1 35/64/1
f 41/57/1 42/58/1 38/59/1 37/60/1
f 43/61/1 44/62/1 40/63/1 39/64/1
f 45/57/1 46/58/1 42/59/1 41/60/1
f 47/61/1 48/62/1 44/63/1 43/64/1
f 49/57/1 50/58/1 46/59/1 45/60/1
f 51/61/1 52/62/1 48/63/1 47/64/1
f 53/57/1 54/58/1 50/59/1 49/60/1
f 55/61/1 56/62/1 52/63/1 51/64/1
f 57/57/1 58/58/1 54/59/1 53/60/1
f 59/65/1 57/66/1 53/67/1 60/68/1
f 61/69/1 59/70/1 60/71/1 62/72/1
f 63/69/1 61/70/1 62/71/1 64/72/1
f 65/73/1 63/74/1 64/75/1 66/76/1
f 67/69/1 65/70/1 66/71/1 68/72/1
f 239/77/1 67/78/1 68/79/1 237/80/1
f 240/73/1 239/74/1 237/75/1 238/76/1
f 70/69/1 240/70/1 238/71/1 71/72/1
f 69/73/1 70/74/1 71/75/1 72/76/1
f 79/77/1 77/78/1 78/79/1 56/80/1
f 80/61/1 79/62/1 56/63/1 55/64/1

g mesh_0004
f 90/81/1 88/82/1 246/83/1 247/84/1
f 98/85/1 96/86/1 250/87/1 251/88/1
f 97/89/1 95/90/1 96/91/1 98/92/1
f 113/89/1 112/90/1 95/91/1 97/92/1
f 125/89/1 124/90/1 112/91/1 113/92/1
f 137/89/1 136/90/1 124/91/1 125/92/1
f 149/89/1 148/90/1 136/91/1 137/92/1
f 161/89/1 160/90/1 148/91/1 149/92/1
f 173/81/1 172/82/1 160/83/1 161/84/1
f 32/81/1 176/82/1 164/83/1 28/84/1
f 73/93/1 69/94/1 72/95/1 74/96/1
f 75/93/1 73/94/1 74/95/1 76/96/1
f 77/93/1 75/94/1 76/95/1 78/96/1

g mesh_0005
f 84/97/1 82/98/1 243/99/1 244/100/1
f 94/101/1 92/102/1 248/103/1 249/104/1
f 96/105/1 94/106/1 249/107/1 250/108/1
f 100/109/1 98/110/1 251/39/1 252/111/1
f 102/112/1 100/113/1 252/114/1 253/115/1
f 104/116/1 102/117/1 253/118/1 254/119/1
f 7/120/1 104/121/1 254/95/1 255/122/1
f 83/123/1 81/124/1 82/125/1 84/126/1
f 99/127/1 97/128/1 98/129/1 100/130/1
f 101/131/1 99/132/1 100/133/1 102/134/1
f 103/135/1 101/136/1 102/137/1 104/138/1
f 6/139/1 103/140/1 104/141/1 7/142/1
f 106/143/1 105/144/1 81/145/1 83/146/1
f 114/147/1 113/148/1 97/149/1 99/150/1
f 115/151/1 114/152/1 99/153/1 101/154/1
f 116/155/1 115/156/1 101/157/1 103/158/1
f 12/159/1 116/160/1 103/161/1 6/162/1
f 175/163/1 174/164/1 162/165/1 163/88/1

g mesh_0006
f 82/166/1 4/167/1 242/39/1 243/96/1
f 88/168/1 86/169/1 245/170/1 246/171/1
f 90/172/1 88/173/1 246/87/1 247/100/1
f 81/89/1 1/174/1 4/175/1 82/176/1
f 85/177/1 83/178/1 84/179/1 86/180/1
f 89/25/1 87/181/1 88/182/1 90/183/1
f 105/184/1 9/185/1 1/186/1 81/187/1
f 117/188/1 13/30/1 9/189/1 105/190/1

g mesh_0007
f 93/191/1 91/178/1 92/87/1 94/192/1
f 95/177/1 93/193/1 94/194/1 96/100/1
f 111/195/1 110/181/1 91/170/1 93/196/1
f 112/25/1 111/26/1 93/197/1 95/171/1

g mesh_0008
f 87/198/1 85/199/1 86/99/1 88/111/1
f 108/200/1 107/201/1 85/202/1 87/203/1

g mesh_0009
f 127/204/1 126/205/1 114/206/1 115/207/1
f 128/208/1 127/209/1 115/210/1 116/211/1
f 16/166/1 128/212/1 116/213/1 12/96/1
f 129/214/1 17/169/1 13/170/1 117/215/1
f 140/216/1 139/217/1 127/218/1 128/219/1
f 20/89/1 140/220/1 128/221/1 16/176/1
f 141/222/1 21/181/1 17/182/1 129/223/1
f 152/224/1 151/225/1 139/226/1 140/227/1
f 24/184/1 152/228/1 140/229/1 20/187/1

g mesh_0010
f 185/230/1 184/231/1 172/232/1 173/92/1
f 36/233/1 188/234/1 176/39/1 32/96/1

g mesh_0011
f 64/235/1 62/236/1 226/237/1 227/238/1
f 66/235/1 64/236/1 227/237/1 228/238/1
f 63/239/1 61/240/1 62/241/1 64/242/1
f 65/239/1 63/240/1 64/241/1 66/242/1
f 73/243/1 69/244/1 72/245/1 74/246/1
f 75/243/1 73/244/1 74/245/1 76/246/1
f 77/243/1 75/244/1 76/245/1 78/246/1

g mesh_0012
f 4/188/1 3/181/1 241/87/1 242/96/1
f 82/188/1 4/181/1 242/87/1 243/96/1
f 84/188/1 82/181/1 243/87/1 244/96/1
f 86/188/1 84/181/1 244/87/1 245/96/1
f 88/188/1 86/181/1 245/87/1 246/96/1
f 90/188/1 88/181/1 246/87/1 247/96/1
f 92/188/1 90/181/1 247/87/1 248/96/1
f 94/188/1 92/181/1 248/87/1 249/96/1
f 96/188/1 94/181/1 249/87/1 250/96/1
f 1/188/1 2/181/1 3/87/1 4/96/1
f 81/188/1 1/181/1 4/87/1 82/96/1
f 83/188/1 81/181/1 82/87/1 84/96/1
f 89/188/1 87/181/1 88/87/1 90/96/1
f 95/188/1 93/181/1 94/87/1 96/96/1
f 97/188/1 95/181/1 96/87/1 98/96/1
f 99/188/1 97/181/1 98/87/1 100/96/1
f 101/188/1 99/181/1 100/87/1 102/96/1
f 103/188/1 101/181/1 102/87/1 104/96/1
f 6/188/1 103/181/1 104/87/1 7/96/1
f 5/188/1 6/181/1 7/87/1 8/96/1
f 9/188/1 10/181/1 2/87/1 1/96/1
f 105/188/1 9/181/1 1/87/1 81/96/1
f 112/188/1 111/181/1 93/87/1 95/96/1
f 113/188/1 112/181/1 95/87/1 97/96/1
f 11/188/1 12/181/1 6/87/1 5/96/1
f 13/188/1 14/181/1 10/87/1 9/96/1
f 117/188/1 13/181/1 9/87/1 105/96/1
f 125/188/1 124/181/1 112/87/1 113/96/1
f 15/188/1 16/181/1 12/87/1 11/96/1
f 17/188/1 18/181/1 14/87/1 13/96/1
f 137/188/1 136/181/1 124/87/1 125/96/1
f 140/188/1 139/181/1 127/87/1 128/96/1
f 20/188/1 140/181/1 128/87/1 16/96/1
f 19/188/1 20/181/1 16/87/1 15/96/1
f 21/188/1 22/181/1 18/87/1 17/96/1
f 149/188/1 148/181/1 136/87/1 137/96/1
f 152/188/1 151/181/1 139/87/1 140/96/1
f 24/188/1 152/181/1 140/87/1 20/96/1
f 23/188/1 24/181/1 20/87/1 19/96/1
f 25/188/1 26/181/1 22/87/1 21/96/1
f 161/188/1 160/181/1 148/87/1 149/96/1
f 27/188/1 28/181/1 24/87/1 23/96/1
f 29/188/1 30/181/1 26/87/1 25/96/1
f 173/188/1 172/181/1 160/87/1 161/96/1
f 32/188/1 176/181/1 164/87/1 28/96/1
f 31/188/1 32/181/1 28/87/1 27/96/1
f 33/188/1 34/181/1 30/87/1 29/96/1
f 185/188/1 184/181/1 172/87/1 173/96/1
f 36/188/1 188/181/1 176/87/1 32/96/1
f 35/188/1 36/181/1 32/87/1 31/96/1
f 37/188/1 38/181/1 34/87/1 33/96/1
f 39/188/1 40/181/1 36/87/1 35/96/1
f 41/188/1 42/181/1 38/87/1 37/96/1
f 43/188/1 44/181/1 40/87/1 39/96/1
f 45/188/1 46/181/1 42/87/1 41/96/1
f 47/188/1 48/181/1 44/87/1 43/96/1
f 49/188/1 50/181/1 46/87/1 45/96/1
f 51/188/1 52/181/1 48/87/1 47/96/1
f 53/188/1 54/181/1 50/87/1 49/96/1
f 64/188/1 62/181/1 226/87/1 227/96/1
f 66/188/1 64/181/1 227/87/1 228/96/1
f 55/188/1 56/181/1 52/87/1 51/96/1
f 57/188/1 58/181/1 54/87/1 53/96/1
f 59/188/1 57/181/1 53/87/1 60/96/1
f 61/188/1 59/181/1 60/87/1 62/96/1
f 63/188/1 61/181/1 62/87/1 64/96/1
f 65/188/1 63/181/1 64/87/1 66/96/1
f 67/188/1 65/181/1 66/87/1 68/96/1
f 239/188/1 67/181/1 68/87/1 237/96/1
f 240/188/1 239/181/1 237/87/1 238/96/1
f 70/188/1 240/181/1 238/87/1 71/96/1
f 69/188/1 70/181/1 71/87/1 72/96/1
f 79/188/1 77/181/1 78/87/1 56/96/1
f 80/188/1 79/181/1 56/87/1 55/96/1

